<?xml version="1.0" encoding="UTF-8" standalone="no"?> <!-- Created with Vectornator for iOS (http://vectornator.io/) --><!DOCTYPE svg PUBLIC "-//W3C//DTD SVG 1.1//EN" "http://www.w3.org/Graphics/SVG/1.1/DTD/svg11.dtd">
<svg height="100%" style="fill-rule:nonzero;clip-rule:evenodd;stroke-linecap:round;stroke-linejoin:round;" xmlns:xlink="http://www.w3.org/1999/xlink" xmlns="http://www.w3.org/2000/svg" xml:space="preserve" width="100%" xmlns:vectornator="http://vectornator.io" version="1.1" viewBox="0 0 1366 1024">
<metadata>
<vectornator:setting key="DimensionsVisible" value="1"/>
<vectornator:setting key="PencilOnly" value="0"/>
<vectornator:setting key="SnapToPoints" value="0"/>
<vectornator:setting key="OutlineMode" value="0"/>
<vectornator:setting key="CMYKEnabledKey" value="0"/>
<vectornator:setting key="RulersVisible" value="1"/>
<vectornator:setting key="SnapToEdges" value="0"/>
<vectornator:setting key="GuidesVisible" value="1"/>
<vectornator:setting key="DisplayWhiteBackground" value="0"/>
<vectornator:setting key="doHistoryDisabled" value="0"/>
<vectornator:setting key="SnapToGuides" value="1"/>
<vectornator:setting key="TimeLapseWatermarkDisabled" value="0"/>
<vectornator:setting key="Units" value="Points"/>
<vectornator:setting key="DynamicGuides" value="0"/>
<vectornator:setting key="IsolateActiveLayer" value="0"/>
<vectornator:setting key="SnapToGrid" value="0"/>
</metadata>
<defs/>
<g id="Layer 1" vectornator:layerName="Layer 1">
<path stroke="#000000" stroke-width="10.3227" d="M275.413+188.376L1191.7+188.376C1197.34+188.376+1201.92+192.955+1201.92+198.604L1201.92+842.955C1201.92+848.604+1197.34+853.183+1191.7+853.183L275.413+853.183C269.764+853.183+265.185+848.604+265.185+842.955L265.185+198.604C265.185+192.955+269.764+188.376+275.413+188.376Z" fill="#ffffff" stroke-linecap="round" opacity="1" stroke-linejoin="round"/>
<path d="M256.048+663.13L304.245+662.096C335.357+662.096+327.932+718.52+327.932+750.494L328.962+848.128L199.195+847.803C199.195+847.803+174.657+825.454+170.917+798.821C167.176+772.189+167.027+748.693+167.027+748.693C167.027+731.88+185.977+694.747+204.372+680.524C220.961+667.699+255.616+663.994+256.048+663.13Z" opacity="1" fill="#ffffff"/>
<g opacity="1">
<path d="M577.745+637.454L825.755+637.454C831.659+637.454+836.446+641.865+836.446+647.306L836.446+724.262C836.446+729.703+831.659+734.114+825.755+734.114L577.745+734.114C571.84+734.114+567.054+729.703+567.054+724.262L567.054+647.306C567.054+641.865+571.84+637.454+577.745+637.454Z" opacity="1" fill="#3c3c3c"/>
<path d="M513.763+727.298L891.108+727.298C894.281+727.298+896.852+730.068+896.852+733.485L896.852+746.344C896.852+749.761+894.281+752.531+891.108+752.531L513.763+752.531C510.591+752.531+508.019+749.761+508.019+746.344L508.019+733.485C508.019+730.068+510.591+727.298+513.763+727.298Z" opacity="1" fill="#3c3c3c"/>
<path d="M706.686+451.157L706.686+451.157C730.397+451.157+749.619+473.438+749.619+500.922L749.619+643.964C749.619+671.448+730.397+693.729+706.686+693.729L706.686+693.729C682.976+693.729+663.754+671.448+663.754+643.964L663.754+500.922C663.754+473.438+682.976+451.157+706.686+451.157Z" opacity="1" fill="#3c3c3c"/>
<path d="M636.189+325.976L636.189+325.976C649.351+320.287+664.72+326.147+670.516+339.065L730.463+472.656C736.259+485.574+730.288+500.657+717.126+506.346L717.126+506.346C703.963+512.034+688.594+506.174+682.798+493.257L622.852+359.665C617.055+346.748+623.027+331.665+636.189+325.976Z" opacity="1" fill="#3c3c3c"/>
<path d="M705.701+458.226L707.921+458.226C725.086+458.226+739.001+472.376+739.001+489.832L739.001+489.832C739.001+507.287+725.086+521.438+707.921+521.438L705.701+521.438C688.537+521.438+674.622+507.287+674.622+489.832L674.622+489.832C674.622+472.376+688.537+458.226+705.701+458.226Z" opacity="1" fill="#ffffff"/>
<path d="M635.688+331.244L807.553+289.619L817.661+329.818L645.796+371.442C638.133+373.298+629.657+365.804+626.866+354.704L626.866+354.704C624.074+343.603+628.024+333.1+635.688+331.244Z" opacity="1" fill="#3c3c3c"/>
<path d="M646.318+329.074L647.754+329.074C658.855+329.074+667.854+338.261+667.854+349.593L667.854+349.593C667.854+360.926+658.855+370.113+647.754+370.113L646.318+370.113C635.217+370.113+626.217+360.926+626.217+349.593L626.217+349.593C626.217+338.261+635.217+329.074+646.318+329.074Z" opacity="1" fill="#ffffff"/>
<path d="M793.456+298.394L859.501+281.961C867.063+280.079+874.64+285.013+876.426+292.982L876.426+292.982C878.212+300.95+873.529+308.936+865.967+310.817L799.922+327.251C792.36+329.133+784.783+324.198+782.997+316.23L782.997+316.23C781.211+308.261+785.894+300.276+793.456+298.394Z" opacity="1" fill="#3c3c3c"/>
<path d="M857.562+287.912L861.281+286.801C867.795+284.854+874.089+286.544+875.34+290.574L904.17+383.488C905.42+387.519+901.153+392.365+894.639+394.312L890.92+395.423C884.406+397.37+878.112+395.68+876.861+391.649L848.031+298.735C846.781+294.705+851.048+289.859+857.562+287.912Z" opacity="1" fill="#3c3c3c"/>
<path d="M862.699+285.507L863.464+285.507C869.384+285.507+874.183+290.262+874.183+296.128L874.183+296.128C874.183+301.994+869.384+306.749+863.464+306.749L862.699+306.749C856.779+306.749+851.979+301.994+851.979+296.128L851.979+296.128C851.979+290.262+856.779+285.507+862.699+285.507Z" opacity="1" fill="#ffffff"/>
<path d="M877.299+390.399L860.644+425.322L895.362+450.789L898.68+455.527L901.517+454.407L899.386+448.457L879.717+423.187L886.285+407.418L902.649+403.461L915.986+413.195L917.692+444.139L919.192+450.898L921.612+450.423L922.458+443.442L934.458+407.814L903.59+383.252L877.299+390.399Z" opacity="1" fill="#3c3c3c"/>
<g opacity="1">
<path d="M646.997+662.405L656.182+662.405L669.781+702.431L683.284+662.405L692.372+662.405L692.372+709.746L686.281+709.746L686.281+681.806C686.281+680.839+686.303+679.238+686.346+677.004C686.389+674.77+686.41+672.374+686.41+669.818L672.907+709.746L666.559+709.746L652.959+669.818L652.959+671.268C652.959+672.428+652.986+674.195+653.04+676.569C653.093+678.943+653.12+680.689+653.12+681.806L653.12+709.746L646.997+709.746L646.997+662.405Z" opacity="1" fill="#ffffff"/>
<path d="M703.587+662.405L710.064+662.405L710.064+709.746L703.587+709.746L703.587+662.405Z" opacity="1" fill="#ffffff"/>
<path d="M740.422+661.116C746.416+661.116+751.067+662.695+754.376+665.854C757.685+669.012+759.522+672.6+759.887+676.617L753.635+676.617C752.926+673.567+751.513+671.15+749.397+669.366C747.281+667.583+744.311+666.692+740.486+666.692C735.824+666.692+732.059+668.33+729.191+671.606C726.323+674.882+724.889+679.904+724.889+686.672C724.889+692.215+726.183+696.711+728.772+700.159C731.361+703.607+735.223+705.331+740.357+705.331C745.084+705.331+748.683+703.516+751.153+699.885C752.464+697.973+753.441+695.459+754.086+692.344L760.338+692.344C759.779+697.328+757.932+701.507+754.795+704.88C751.035+708.941+745.965+710.971+739.584+710.971C734.084+710.971+729.465+709.306+725.727+705.976C720.807+701.571+718.347+694.772+718.347+685.576C718.347+678.594+720.194+672.868+723.89+668.4C727.886+663.544+733.397+661.116+740.422+661.116Z" opacity="1" fill="#ffffff"/>
</g>
</g>
<path d="M225.127+109.363L296.794+109.731L300.99+663.994C300.99+663.994+279.984+662.044+271.173+662.698C254.814+663.911+233.145+668.748+233.145+668.748L199.438+683.44C190.239+686.752+183.602+709.466+176.967+720.172C168.016+734.613+162.706+757.768+162.706+757.768C162.706+757.768+163.57+686.404+163.57+667.667L161.236+174.368C161.236+138.21+188.969+109.363+225.127+109.363Z" opacity="1" fill="#000000"/>
<path stroke="#000000" stroke-width="10.32" d="M279.328+853.238C279.328+853.238+274.638+852.914+224.21+853.376C173.782+853.839+168.756+795.796+167.459+760.793C166.163+725.79+182.697+685.932+214.563+673.501C257.25+656.849+296.237+662.698+296.237+662.698" fill="none" stroke-linecap="round" opacity="1" stroke-linejoin="round"/>
</g>
</svg>
