<?xml version="1.0" encoding="UTF-8" standalone="no"?> <!-- Created with Vectornator for iOS (http://vectornator.io/) --><!DOCTYPE svg PUBLIC "-//W3C//DTD SVG 1.1//EN" "http://www.w3.org/Graphics/SVG/1.1/DTD/svg11.dtd">
<svg height="100%" style="fill-rule:nonzero;clip-rule:evenodd;stroke-linecap:round;stroke-linejoin:round;" xmlns:xlink="http://www.w3.org/1999/xlink" xmlns="http://www.w3.org/2000/svg" xml:space="preserve" width="100%" xmlns:vectornator="http://vectornator.io" version="1.1" viewBox="0 0 1366 1024">
<metadata>
<vectornator:setting key="DimensionsVisible" value="1"/>
<vectornator:setting key="PencilOnly" value="0"/>
<vectornator:setting key="SnapToPoints" value="0"/>
<vectornator:setting key="OutlineMode" value="0"/>
<vectornator:setting key="CMYKEnabledKey" value="0"/>
<vectornator:setting key="RulersVisible" value="1"/>
<vectornator:setting key="SnapToEdges" value="0"/>
<vectornator:setting key="GuidesVisible" value="1"/>
<vectornator:setting key="DisplayWhiteBackground" value="0"/>
<vectornator:setting key="doHistoryDisabled" value="0"/>
<vectornator:setting key="SnapToGuides" value="1"/>
<vectornator:setting key="TimeLapseWatermarkDisabled" value="0"/>
<vectornator:setting key="Units" value="Points"/>
<vectornator:setting key="DynamicGuides" value="0"/>
<vectornator:setting key="IsolateActiveLayer" value="0"/>
<vectornator:setting key="SnapToGrid" value="0"/>
</metadata>
<defs/>
<g id="Layer 1" vectornator:layerName="Layer 1">
<g opacity="1">
<path d="M347.367+760.602L877.124+760.602C889.737+760.602+899.961+769.777+899.961+781.095L899.961+941.173C899.961+952.491+889.737+961.666+877.124+961.666L347.367+961.666C334.754+961.666+324.53+952.491+324.53+941.173L324.53+781.095C324.53+769.777+334.754+760.602+347.367+760.602Z" opacity="1" fill="#3c3c3c"/>
<path d="M210.699+947.49L1016.72+947.49C1023.5+947.49+1028.99+953.251+1028.99+960.359L1028.99+987.108C1028.99+994.215+1023.5+999.977+1016.72+999.977L210.699+999.977C203.923+999.977+198.43+994.215+198.43+987.108L198.43+960.359C198.43+953.251+203.923+947.49+210.699+947.49Z" opacity="1" fill="#3c3c3c"/>
<path d="M622.79+373.08L622.79+373.08C673.438+373.08+714.496+419.426+714.496+476.598L714.496+774.143C714.496+831.314+673.438+877.661+622.79+877.661L622.79+877.661C572.143+877.661+531.085+831.314+531.085+774.143L531.085+476.598C531.085+419.426+572.143+373.08+622.79+373.08Z" opacity="1" fill="#3c3c3c"/>
<path d="M472.205+112.686L472.205+112.686C500.32+100.853+533.149+113.043+545.53+139.913L673.577+417.801C685.959+444.671+673.204+476.046+645.089+487.879L645.089+487.879C616.974+499.712+584.145+487.522+571.764+460.652L443.717+182.764C431.335+155.894+444.09+124.519+472.205+112.686Z" opacity="1" fill="#3c3c3c"/>
<path d="M620.686+387.783L625.428+387.783C662.093+387.783+691.815+417.218+691.815+453.528L691.815+453.528C691.815+489.838+662.093+519.273+625.428+519.273L620.686+519.273C584.022+519.273+554.3+489.838+554.3+453.528L554.3+453.528C554.3+417.218+584.022+387.783+620.686+387.783Z" opacity="1" fill="#ffffff"/>
<path d="M471.135+123.644L838.244+37.0594L859.836+120.678L492.727+207.262C476.357+211.123+458.253+195.534+452.291+172.444L452.291+172.444C446.328+149.353+454.765+127.505+471.135+123.644Z" opacity="1" fill="#3c3c3c"/>
<path d="M493.841+119.131L496.908+119.131C520.62+119.131+539.843+138.241+539.843+161.814L539.843+161.814C539.843+185.387+520.62+204.497+496.908+204.497L493.841+204.497C470.129+204.497+450.906+185.387+450.906+161.814L450.906+161.814C450.906+138.241+470.129+119.131+493.841+119.131Z" opacity="1" fill="#ffffff"/>
<path d="M808.133+55.3131L949.207+21.1284C965.359+17.2143+981.546+27.4785+985.36+44.0542L985.36+44.0542C989.174+60.6298+979.172+77.24+963.019+81.1541L821.946+115.339C805.793+119.253+789.607+108.989+785.792+92.413L785.792+92.413C781.978+75.8373+791.981+59.2271+808.133+55.3131Z" opacity="1" fill="#3c3c3c"/>
<path d="M945.065+33.509L953.009+31.1971C966.923+27.1477+980.369+30.6619+983.04+39.0463L1044.62+232.32C1047.29+240.704+1038.18+250.784+1024.26+254.833L1016.32+257.145C1002.41+261.194+988.961+257.68+986.289+249.296L924.708+56.0224C922.037+47.638+931.151+37.5584+945.065+33.509Z" opacity="1" fill="#3c3c3c"/>
<path d="M956.038+28.5053L957.673+28.5053C970.319+28.5053+980.57+38.3967+980.57+50.5984L980.57+50.5984C980.57+62.8+970.319+72.6914+957.673+72.6914L956.038+72.6914C943.392+72.6914+933.141+62.8+933.141+50.5984L933.141+50.5984C933.141+38.3967+943.392+28.5053+956.038+28.5053Z" opacity="1" fill="#ffffff"/>
<path d="M987.224+246.695L951.649+319.339L1025.81+372.315L1032.9+382.17L1038.96+379.84L1034.4+367.463L992.39+314.899L1006.42+282.095L1041.37+273.864L1069.86+294.113L1073.5+358.482L1076.71+372.54L1081.88+371.552L1083.69+357.032L1109.32+282.92L1043.38+231.829L987.224+246.695Z" opacity="1" fill="#3c3c3c"/>
<g opacity="1">
<path d="M499.967+814.878L520.701+814.878L551.404+905.239L581.888+814.878L602.404+814.878L602.404+921.754L588.654+921.754L588.654+858.676C588.654+856.493+588.702+852.88+588.799+847.836C588.896+842.791+588.945+837.383+588.945+831.612L558.461+921.754L544.128+921.754L513.426+831.612L513.426+834.885C513.426+837.505+513.487+841.494+513.608+846.854C513.729+852.213+513.79+856.154+513.79+858.676L513.79+921.754L499.967+921.754L499.967+814.878Z" opacity="1" fill="#ffffff"/>
<path d="M627.722+814.878L642.346+814.878L642.346+921.754L627.722+921.754L627.722+814.878Z" opacity="1" fill="#ffffff"/>
<path d="M710.88+811.968C724.412+811.968+734.913+815.533+742.383+822.663C749.852+829.793+753.999+837.893+754.824+846.963L740.709+846.963C739.109+840.075+735.92+834.619+731.142+830.593C726.365+826.567+719.659+824.554+711.026+824.554C700.501+824.554+692.001+828.253+685.525+835.649C679.05+843.046+675.813+854.384+675.813+869.662C675.813+882.176+678.735+892.325+684.58+900.109C690.424+907.894+699.143+911.786+710.735+911.786C721.405+911.786+729.529+907.688+735.107+899.491C738.066+895.174+740.273+889.499+741.728+882.467L755.842+882.467C754.581+893.719+750.41+903.153+743.328+910.768C734.84+919.935+723.394+924.518+708.989+924.518C696.572+924.518+686.144+920.759+677.704+913.241C666.597+903.298+661.044+887.947+661.044+867.188C661.044+851.425+665.215+838.499+673.557+828.41C682.579+817.449+695.02+811.968+710.88+811.968Z" opacity="1" fill="#ffffff"/>
</g>
</g>
</g>
</svg>
